<?xml version="1.0" encoding="utf-8"?>
<!-- Generator: Adobe Illustrator 18.0.0, SVG Export Plug-In . SVG Version: 6.00 Build 0)  -->
<!DOCTYPE svg PUBLIC "-//W3C//DTD SVG 1.1//EN" "http://www.w3.org/Graphics/SVG/1.1/DTD/svg11.dtd">
<svg version="1.1" id="Layer_1" xmlns="http://www.w3.org/2000/svg" xmlns:xlink="http://www.w3.org/1999/xlink" x="0px" y="0px"
	 viewBox="0 0 153.8 72.8" enable-background="new 0 0 153.8 72.8" xml:space="preserve">
<g>
	<g>
		<path fill="#010101" d="M17.1,34.8c0.1,2.7,1.7,7.8,12.6,7.8c5.9,0,12.5-1.1,12.5-6.3c0-3.8-4.5-4.8-10.8-6L25,29.2
			c-9.6-1.8-19-3.6-19-14.2C6.1,9.5,9.7,0,29,0c18.3,0,23.2,9.7,23.3,15.7h-12C40,13.5,39,8.4,28.1,8.4c-4.7,0-10.4,1.4-10.4,5.8
			c0,3.8,3.8,4.6,6.3,5.1l14.6,2.9c8.1,1.6,15.6,4.3,15.6,13C54.2,49.8,35.9,51,30.7,51C8.9,51,5.2,40.8,5.2,34.8H17.1z"/>
	</g>
	<g>
		<path fill="#EC2224" d="M55.3,49.8H42.2L63.5,1.3h14.4l21,48.5H85.3l-3.8-10h-22L55.3,49.8z M62.8,31.4H78l-7.4-19.2h-0.2
			L62.8,31.4z"/>
	</g>
	<g>
		<path fill="#010101" d="M98.9,34.8c0.1,2.7,1.7,7.8,12.6,7.8c5.9,0,12.5-1.1,12.5-6.3c0-3.8-4.5-4.8-10.8-6l-6.4-1.2
			c-9.6-1.8-19-3.6-19-14.2c0-5.4,3.6-14.9,23-14.9c18.3,0,23.2,9.7,23.3,15.7h-12c-0.3-2.2-1.3-7.3-12.2-7.3
			c-4.7,0-10.4,1.4-10.4,5.8c0,3.8,3.8,4.6,6.3,5.1l14.6,2.9c8.1,1.6,15.6,4.3,15.6,13c0,14.6-18.3,15.9-23.5,15.9
			c-21.8,0-25.5-10.2-25.5-16.2H98.9z"/>
	</g>
	<g>
		<path fill="#010101" d="M0.3,71c0.5,0.4,1.3,0.7,2.1,0.7c1.2,0,1.9-0.7,1.9-1.8c0-1-0.5-1.5-1.7-2c-1.5-0.6-2.4-1.5-2.4-2.9
			c0-1.6,1.2-2.8,2.9-2.8c0.9,0,1.6,0.2,2,0.5l-0.3,1.1c-0.3-0.2-0.9-0.5-1.7-0.5c-1.2,0-1.7,0.8-1.7,1.5c0,1,0.5,1.4,1.8,2
			c1.5,0.7,2.3,1.5,2.3,3c0,1.6-1,3-3.1,3c-0.9,0-1.8-0.3-2.3-0.7L0.3,71z"/>
		<path fill="#010101" d="M8.5,69.4l-0.9,3.2H6.3l3.1-10.3h1.4l3.1,10.3h-1.2l-1-3.2H8.5z M11.4,68.3l-0.9-3
			c-0.2-0.7-0.3-1.3-0.5-1.9h0c-0.1,0.6-0.3,1.2-0.5,1.9l-0.9,3H11.4z"/>
		<path fill="#010101" d="M16.3,62.3v10.3h-1.2V62.3H16.3z"/>
		<path fill="#010101" d="M20.1,63.4h-2.7v-1.1H24v1.1h-2.7v9.1h-1.2V63.4z"/>
		<path fill="#010101" d="M29.3,69.4l-0.9,3.2h-1.2l3.1-10.3h1.4l3.1,10.3h-1.2l-1-3.2H29.3z M32.2,68.3l-0.9-3
			c-0.2-0.7-0.3-1.3-0.5-1.9h0c-0.1,0.6-0.3,1.2-0.5,1.9l-0.9,3H32.2z"/>
		<path fill="#010101" d="M42,72.2c-0.4,0.2-1.3,0.5-2.4,0.5c-2.5,0-4.4-1.8-4.4-5.2c0-3.2,1.9-5.4,4.7-5.4c1.1,0,1.8,0.3,2.1,0.5
			l-0.3,1.1c-0.4-0.2-1.1-0.4-1.8-0.4c-2.1,0-3.5,1.5-3.5,4.2c0,2.5,1.3,4.1,3.4,4.1c0.7,0,1.4-0.2,1.9-0.4L42,72.2z"/>
		<path fill="#010101" d="M49.5,72.2c-0.4,0.2-1.3,0.5-2.4,0.5c-2.5,0-4.4-1.8-4.4-5.2c0-3.2,1.9-5.4,4.7-5.4c1.1,0,1.8,0.3,2.1,0.5
			l-0.3,1.1c-0.4-0.2-1.1-0.4-1.8-0.4c-2.1,0-3.5,1.5-3.5,4.2c0,2.5,1.3,4.1,3.5,4.1c0.7,0,1.4-0.2,1.9-0.4L49.5,72.2z"/>
		<path fill="#010101" d="M58.4,67.3c0,3.5-1.9,5.4-4.2,5.4c-2.4,0-4-2.1-4-5.2c0-3.3,1.8-5.4,4.2-5.4
			C56.8,62.1,58.4,64.3,58.4,67.3z M51.4,67.5c0,2.2,1,4.2,2.9,4.2c1.8,0,2.9-1.9,2.9-4.3c0-2-0.9-4.2-2.9-4.2
			C52.3,63.2,51.4,65.3,51.4,67.5z"/>
		<path fill="#010101" d="M61,62.3v6.1c0,2.3,0.9,3.3,2.1,3.3c1.3,0,2.2-1,2.2-3.3v-6.1h1.2v6c0,3.2-1.5,4.5-3.4,4.5
			c-1.8,0-3.2-1.2-3.2-4.4v-6.1H61z"/>
		<path fill="#010101" d="M68.5,72.6V62.3h1.3l2.9,5.2c0.7,1.2,1.2,2.3,1.6,3.3l0,0c-0.1-1.4-0.1-2.6-0.1-4.2v-4.3h1.1v10.3H74
			l-2.9-5.2c-0.6-1.1-1.2-2.3-1.7-3.4l0,0c0.1,1.3,0.1,2.5,0.1,4.2v4.4H68.5z"/>
		<path fill="#010101" d="M78.9,63.4h-2.7v-1.1h6.6v1.1h-2.7v9.1h-1.2V63.4z"/>
		<path fill="#010101" d="M85,62.3v10.3h-1.2V62.3H85z"/>
		<path fill="#010101" d="M87,72.6V62.3h1.3l2.9,5.2c0.7,1.2,1.2,2.3,1.6,3.3l0,0c-0.1-1.4-0.1-2.6-0.1-4.2v-4.3h1.1v10.3h-1.2
			l-2.9-5.2c-0.6-1.1-1.2-2.3-1.7-3.4l0,0c0.1,1.3,0.1,2.5,0.1,4.2v4.4H87z"/>
		<path fill="#010101" d="M102.6,72.1c-0.5,0.2-1.5,0.6-2.8,0.6c-1.4,0-2.5-0.4-3.4-1.4c-0.8-0.9-1.3-2.2-1.3-3.8
			c0-3.1,1.9-5.3,4.9-5.3c1,0,1.9,0.3,2.2,0.5l-0.3,1.1c-0.5-0.2-1.1-0.4-2-0.4c-2.2,0-3.6,1.6-3.6,4.1c0,2.6,1.4,4.1,3.5,4.1
			c0.8,0,1.3-0.1,1.5-0.3v-3.1h-1.8v-1.1h3V72.1z"/>
		<path fill="#010101" d="M107.1,71c0.5,0.4,1.3,0.7,2.1,0.7c1.2,0,1.9-0.7,1.9-1.8c0-1-0.5-1.5-1.7-2c-1.5-0.6-2.4-1.5-2.4-2.9
			c0-1.6,1.2-2.8,2.9-2.8c0.9,0,1.6,0.2,2,0.5l-0.3,1.1c-0.3-0.2-0.9-0.5-1.7-0.5c-1.2,0-1.7,0.8-1.7,1.5c0,1,0.5,1.4,1.8,2
			c1.5,0.7,2.3,1.5,2.3,3c0,1.6-1,3-3.1,3c-0.9,0-1.8-0.3-2.3-0.7L107.1,71z"/>
		<path fill="#010101" d="M121.5,67.3c0,3.5-1.9,5.4-4.2,5.4c-2.4,0-4-2.1-4-5.2c0-3.3,1.8-5.4,4.2-5.4
			C119.9,62.1,121.5,64.3,121.5,67.3z M114.5,67.5c0,2.2,1,4.2,2.9,4.2c1.8,0,2.9-1.9,2.9-4.3c0-2-0.9-4.2-2.9-4.2
			C115.5,63.2,114.5,65.3,114.5,67.5z"/>
		<path fill="#010101" d="M129.3,72.2c-0.4,0.2-1.3,0.5-2.4,0.5c-2.5,0-4.4-1.8-4.4-5.2c0-3.2,1.9-5.4,4.7-5.4
			c1.1,0,1.8,0.3,2.1,0.5l-0.3,1.1c-0.4-0.2-1.1-0.4-1.8-0.4c-2.1,0-3.5,1.5-3.5,4.2c0,2.5,1.3,4.1,3.5,4.1c0.7,0,1.4-0.2,1.9-0.4
			L129.3,72.2z"/>
		<path fill="#010101" d="M131.9,62.3v10.3h-1.2V62.3H131.9z"/>
		<path fill="#010101" d="M138.5,67.8H135v3.7h3.9v1.1h-5V62.3h4.8v1.1H135v3.2h3.5V67.8z"/>
		<path fill="#010101" d="M142.4,63.4h-2.7v-1.1h6.6v1.1h-2.7v9.1h-1.2V63.4z"/>
		<path fill="#010101" d="M149.6,72.6v-4.4l-2.8-5.9h1.3l1.3,2.8c0.3,0.8,0.6,1.4,0.9,2.1h0c0.3-0.7,0.6-1.3,0.9-2.1l1.3-2.8h1.3
			l-3,5.9v4.4H149.6z"/>
	</g>
	<path fill="#010101" d="M6.8,56.1c0,0,2.2-0.1,6-0.2c3.8-0.1,9.3-0.3,15.8-0.4c6.5-0.1,14.2-0.2,22.3-0.3c4.1,0,8.3-0.1,12.6-0.1
		c4.3,0,8.7,0,13,0c4.4,0,8.7,0,13,0c4.3,0,8.5,0.1,12.6,0.1c8.2,0.1,15.8,0.2,22.4,0.3c6.5,0.1,12,0.3,15.8,0.4
		c3.8,0.1,6,0.2,6,0.2s-2.2,0.1-6,0.2c-3.8,0.1-9.3,0.3-15.8,0.4c-6.5,0.1-14.2,0.2-22.4,0.3c-4.1,0-8.3,0.1-12.6,0.1
		c-4.3,0-8.7,0-13,0c-4.4,0-8.7,0-13,0C59.3,57,55.1,57,51,57c-8.2-0.1-15.8-0.2-22.3-0.3c-6.5-0.1-12-0.3-15.8-0.4
		C9,56.2,6.8,56.1,6.8,56.1"/>
</g>
</svg>
